<svg t="1726642528775" class="icon" viewBox="0 0 1024 1024" version="1.1" xmlns="http://www.w3.org/2000/svg" p-id="31996" width="200" height="200"><path d="M877.226667 878.933333H421.546667c-37.546667 0-68.266667-30.72-68.266667-68.266666V302.08c0-37.546667 30.72-68.266667 68.266667-68.266667h453.973333c37.546667 0 68.266667 30.72 68.266667 68.266667v508.586667c1.706667 37.546667-29.013333 68.266667-66.56 68.266666z" fill="#ffffff" opacity=".3" p-id="31997"></path><path d="M189.44 902.826667H146.773333c-46.08 0-85.333333-37.546667-85.333333-85.333334V119.466667c0-46.08 37.546667-85.333333 85.333333-85.333334h629.76c46.08 0 85.333333 37.546667 85.333334 85.333334v27.306666c0 13.653333-11.946667 25.6-25.6 25.6s-25.6-11.946667-25.6-25.6V119.466667c0-18.773333-15.36-34.133333-34.133334-34.133334H146.773333c-18.773333 0-34.133333 15.36-34.133333 34.133334v698.026666c0 18.773333 15.36 34.133333 34.133333 34.133334h42.666667c13.653333 0 25.6 11.946667 25.6 25.6s-11.946667 25.6-25.6 25.6z" fill="#ffffff" p-id="31998"></path><path d="M868.693333 989.866667H257.706667c-51.2 0-93.866667-42.666667-93.866667-93.866667V215.04c0-51.2 42.666667-93.866667 93.866667-93.866667h610.986666c51.2 0 93.866667 42.666667 93.866667 93.866667v680.96c0 51.2-42.666667 93.866667-93.866667 93.866667zM257.706667 172.373333c-23.893333 0-42.666667 18.773333-42.666667 42.666667v680.96c0 23.893333 18.773333 42.666667 42.666667 42.666667h610.986666c23.893333 0 42.666667-18.773333 42.666667-42.666667V215.04c0-23.893333-18.773333-42.666667-42.666667-42.666667H257.706667z" fill="#ffffff" p-id="31999"></path><path d="M785.066667 581.973333H339.626667c-13.653333 0-25.6-11.946667-25.6-25.6s11.946667-25.6 25.6-25.6H785.066667c13.653333 0 25.6 11.946667 25.6 25.6s-10.24 25.6-25.6 25.6z" fill="#ffffff" p-id="32000"></path><path d="M563.2 803.84c-13.653333 0-25.6-11.946667-25.6-25.6V332.8c0-13.653333 11.946667-25.6 25.6-25.6s25.6 11.946667 25.6 25.6v445.44c0 13.653333-11.946667 25.6-25.6 25.6z" fill="#ffffff" p-id="32001"></path></svg>