<svg t="1726302338914" class="icon" viewBox="0 0 1024 1024" version="1.1" xmlns="http://www.w3.org/2000/svg" p-id="9722" width="200" height="200"><path d="M491.279059 932.924235a36.562824 36.562824 0 0 1-36.261647 36.864 36.562824 36.562824 0 0 1-36.261647-36.864V686.08c0-16.384 10.541176-30.298353 25.118117-35.117176l350.810353-390.927059-578.861176 291.237647 172.453647 63.849412a31.021176 31.021176 0 0 1-4.818824 59.392l-5.180235 0.481882a29.635765 29.635765 0 0 1-10.601412-1.807059L140.408471 589.101176a30.72 30.72 0 0 1-19.757177-25.479529l-1.807059-3.312941c-8.553412-17.709176-0.120471-39.514353 18.552471-48.911059l771.915294-388.517647a36.141176 36.141176 0 0 1 32.406588-7.348706l3.794824 1.084235 4.939294 1.987765 2.108235 1.204706c1.204706 0.602353 2.409412 1.385412 3.614118 2.228706l3.312941 2.891294c7.408941 6.987294 11.384471 16.263529 10.059294 25.840941a40.116706 40.116706 0 0 1-2.108235 10.11953l-142.576941 637.952a29.696 29.696 0 0 1-23.732706 21.925647l-6.445177 1.024-5.180235 0.542117a29.635765 29.635765 0 0 1-10.541176-1.867294l-227.328-84.08847a31.021176 31.021176 0 0 1 10.059294-59.873883l5.300706 0.421647c1.807059 0.301176 3.493647 0.783059 5.24047 1.445647l191.849412 70.896942 109.447529-489.472-382.253176 426.044235v247.085176z" fill="#f2eaea" p-id="9723"></path></svg>